<?xml version="1.0" encoding="utf-8"?>
<!-- Generator: Adobe Illustrator 16.0.0, SVG Export Plug-In . SVG Version: 6.00 Build 0)  -->
<!DOCTYPE svg PUBLIC "-//W3C//DTD SVG 1.1//EN" "http://www.w3.org/Graphics/SVG/1.1/DTD/svg11.dtd">
<svg version="1.1" id="图层_1" xmlns="http://www.w3.org/2000/svg" xmlns:xlink="http://www.w3.org/1999/xlink" x="0px" y="0px"
	 width="561px" height="142px" viewBox="0 0 561 142" enable-background="new 0 0 561 142" xml:space="preserve">
<g>
	<g>
		<g id="slogan-text">
			<path fill="#FFFFFF" d="M406.682,119.025c-0.918-0.832-2.167-1.876-3.75-3.126c-0.584-0.331-0.999-0.624-1.25-0.875l-2,2.125
				c1.416,1.084,3.042,2.501,4.876,4.251L406.682,119.025z"/>
			<path fill="#FFFFFF" d="M353.506,125.899c-0.419-3-0.875-5.625-1.375-7.875l-2.001,0.5c0.668,3.419,1.083,6.044,1.252,7.875
				L353.506,125.899z"/>
			<path fill="#FFFFFF" d="M162.075,127.525c0.165,5.917-0.793,9.999-2.875,12.25c0.167,0.165,0.458,0.415,0.875,0.749
				c0.833,0.751,1.417,1.251,1.75,1.501c2-2.751,3.125-6.208,3.376-10.376h5.749v5.251c0.082,1.084-0.458,1.581-1.624,1.499
				c-1.334,0-2.375,0-3.125,0c0.332,1.25,0.542,2.292,0.625,3.126c1.5,0,2.707,0,3.624,0c2.583,0,3.834-1.294,3.75-3.875V113.4
				h-12.124V127.525z M165.325,116.4h5.625v4.875h-5.625V116.4z M165.325,127.649v-3.624h5.625v4.875h-5.625V127.649z"/>
			<path fill="#FFFFFF" d="M405.683,126.526c-1.585-1.252-3.295-2.542-5.126-3.877l-1.874,2.251c1.331,0.917,2.999,2.25,4.999,4
				L405.683,126.526z"/>
			<path fill="#FFFFFF" d="M389.182,121.149c-0.918-2.665-1.624-4.749-2.125-6.249l-2.25,0.749c0.5,1.5,1.207,3.585,2.124,6.251
				L389.182,121.149z"/>
			<polygon fill="#FFFFFF" points="333.204,122.775 326.58,122.775 326.58,119.025 332.455,119.025 332.455,116.025 326.58,116.025 
				326.58,112.149 323.329,112.149 323.329,116.025 317.454,116.025 317.454,119.025 323.329,119.025 323.329,122.775 
				316.705,122.775 316.705,125.775 333.204,125.775 			"/>
			<path fill="#FFFFFF" d="M159.2,113.4h-11.499v12.875c0.165,6.5-0.669,10.958-2.501,13.374c0.25,0.25,0.666,0.626,1.25,1.125
				c0.667,0.582,1.125,1.001,1.375,1.251c1.832-3.084,2.833-6.501,3-10.249h5.25v4.999c0.083,1.083-0.458,1.624-1.624,1.624
				c-1.001,0-1.959,0-2.875,0c0.25,0.666,0.456,1.667,0.625,3c1.333,0,2.542-0.043,3.624-0.124c2.251-0.084,3.376-1.293,3.376-3.625
				V113.4z M156.074,128.9h-5.25v-1.001v-3.874h5.25V128.9z M156.074,121.275h-5.25V116.4h5.25V121.275z"/>
			<path fill="#FFFFFF" d="M398.182,115.775l-2.25-0.875c-0.749,1.917-1.624,3.999-2.625,6.249l2.126,0.875
				C396.514,119.859,397.431,117.775,398.182,115.775z"/>
			<path fill="#FFFFFF" d="M380.505,130.774v-2.25h-5.25v-1.998h4.251v-2.127h-4.251v-1.874h3.25v-9.251h-17.624v5.126l-1.624-1.001
				c-0.835,1.585-1.585,2.875-2.251,3.876c0-3.166,0-6.167,0-9h-2.751c0,1.083,0,2.959,0,5.625c-0.083,2.749-0.124,4.749-0.124,6
				c0.081,6.667-1.25,11.958-4.001,15.875c1.083,1.082,1.75,1.791,2.001,2.124c2-2.918,3.249-5.665,3.75-8.249
				c0.916,0.917,1.666,1.75,2.25,2.499l0.499-0.625c0.25,0.584,0.501,1.044,0.751,1.376c1.75-0.833,3.25-1.751,4.499-2.75
				c0.334,0.249,0.832,0.584,1.502,0.999c0.415,0.334,0.706,0.544,0.875,0.625c-3.002,1.168-5.419,2.043-7.251,2.625l1.126,2.375
				l7.625-3l-1.002-2.25l1.126-1.624c-0.749-0.417-1.5-0.875-2.251-1.376c0.582-0.5,1.125-1.082,1.626-1.75h4.749
				c0.501,0.751,1.042,1.419,1.626,2.001c-0.667,0.5-1.375,0.917-2.124,1.249l1.373,1.75l-1.373,2c2.666,0.916,5.04,1.917,7.124,3
				l1.25-2.249c-2.835-1.082-5.084-1.957-6.75-2.625c0.751-0.5,1.5-1.001,2.25-1.501c1.083,0.834,2.499,1.626,4.249,2.376
				c0.084-0.083,0.167-0.291,0.251-0.626c0.417-0.749,0.75-1.331,1.001-1.75c-2.501-0.749-4.501-1.956-6.001-3.625H380.505z
				 M363.88,115.275h11.752v1.75H363.88V115.275z M364.256,124.399h-4.25v2.127h4.25v1.998h-5.125v2.25h4.999
				c-0.999,1.002-2.417,1.96-4.249,2.876c-1.001-0.999-2.126-2.125-3.375-3.376c0.25-1.832,0.374-3.999,0.374-6.5v-0.124
				l0.875,0.499c1.083-1.581,2.126-3.165,3.126-4.75v3.126h3.375V124.399z M372.382,128.524h-5.126v-1.998h5.126V128.524z
				 M372.382,124.399h-5.126v-1.874h5.126V124.399z M363.88,120.525v-1.875h11.752v1.875H363.88z"/>
			<path fill="#FFFFFF" d="M368.505,138.275c0.084,0.916-0.417,1.331-1.499,1.25c-0.835,0-1.5-0.043-2.001-0.125
				c0.084,0.249,0.167,0.666,0.251,1.25c0.167,0.5,0.25,0.875,0.25,1.125c0.999,0,1.831,0,2.501,0c2.248,0,3.331-1.084,3.25-3.25
				v-6.749h-2.752V138.275z"/>
			<path fill="#FFFFFF" d="M338.831,123.274v-11.125h-3.252v29.75h3.252v-17.624c0.415,0.417,1.08,1.085,1.998,2
				c1.75,1.667,3.042,2.959,3.876,3.875l2.125-2.749c-2.584-2.418-4.709-4.333-6.376-5.751L338.831,123.274z"/>
			<path fill="#FFFFFF" d="M394.057,128.4l-1.125,1.125v-3.126h4.625v-2.875h-4.625v-11.375h-3.125v11.375h-4.874v2.875h4.623
				c-1.499,3.419-3.166,6.125-5,8.126c0.418,1.168,0.751,2.375,1.002,3.624c1.915-2.416,3.331-4.707,4.249-6.874v10.624h3.125
				v-10.624c0.25,0.25,0.582,0.625,0.999,1.125c1.001,0.999,1.708,1.793,2.127,2.375l2-2.251c-0.669-0.748-1.669-1.79-3.001-3.125
				C394.639,128.984,394.308,128.65,394.057,128.4z"/>
			<polygon fill="#FFFFFF" points="414.807,129.899 410.807,130.274 410.807,112.149 407.557,112.149 407.557,130.65 
				398.182,131.525 398.557,134.649 407.557,133.774 407.557,141.899 410.807,141.899 410.807,133.399 414.932,133.025 			"/>
			<path fill="#FFFFFF" d="M326.58,132.899h5.999v-2.873h-5.999V126.9h-3.251v3.126h-6.123v2.873h6.123v4.375
				c-0.918,0.085-2.292,0.169-4.125,0.25c-1.333,0.169-2.291,0.25-2.873,0.25l0.374,3c7.165-0.667,12.791-1.125,16.875-1.374
				c0-0.834,0-1.792,0-2.875l-7,0.499V132.899z"/>
			<path fill="#FFFFFF" d="M269.228,114.275c0.25-0.582,0.416-1.041,0.501-1.375l-3.376-0.751c-1.084,3.834-2.584,7.501-4.5,11.001
				c1,0.5,1.708,0.875,2.125,1.125c0.332,0.25,0.582,0.417,0.751,0.5c0.749-1.416,1.5-2.958,2.249-4.625h6.876
				c0,1.25-0.042,3.417-0.126,6.5c-0.083,4.334-0.167,7.167-0.249,8.499c0,2.168-1.125,3.25-3.376,3.25
				c-0.584,0-1.418-0.04-2.5-0.124c-1,0-1.75,0-2.249,0c0.25,0.832,0.456,1.874,0.625,3.124c1.915,0,3.708-0.043,5.374-0.124
				c3.667,0.081,5.458-1.75,5.376-5.501c0.165-3.414,0.332-9.666,0.499-18.749h-8.999
				C268.561,116.359,268.894,115.443,269.228,114.275z"/>
			<path fill="#FFFFFF" d="M257.228,112.65l-3.5-0.501c-0.083,0.25-0.169,0.625-0.25,1.125c-0.417,1.585-0.749,2.835-0.999,3.751
				h-3.376v24.5h3.25v-2.375h5.875v2.249h3.125v-24.374h-5.374C256.477,115.608,256.894,114.149,257.228,112.65z M258.227,136.275
				h-5.875v-6.5h5.875V136.275z M258.227,120.15v6.5h-5.875v-6.5H258.227z"/>
			<path fill="#FFFFFF" d="M206.5,126.65v-3.126h-16.125c0-0.165,0.041-0.374,0.124-0.625c0.417-1.499,0.708-2.665,0.875-3.5H209.5
				v-3.125H192c0.083-0.499,0.208-1.25,0.376-2.249c0.082-0.832,0.165-1.457,0.25-1.876l-3.5-0.124c-0.085,0.5-0.168,1.168-0.25,2
				c-0.169,0.999-0.293,1.75-0.376,2.249h-8.25v3.125h7.625c-1.5,7.334-4.334,13.335-8.5,18.001c0.751,1.416,1.292,2.499,1.626,3.25
				c3.832-4.251,6.666-8.958,8.5-14.124h1.624l-1.874,0.999c1.5,3.249,3.25,5.874,5.25,7.875c-2.834,1.668-6.125,2.834-9.875,3.5
				c0,0.081,0.041,0.165,0.126,0.25c0.916,1.5,1.5,2.499,1.75,3c4.331-1.25,7.916-2.75,10.749-4.5
				c2.916,1.832,6.457,3.25,10.626,4.249c0.582-1.333,1.166-2.458,1.75-3.374c-3.834-0.667-7-1.666-9.501-3.001
				C202.708,133.275,204.832,130.319,206.5,126.65z M197.25,133.524c-1.999-1.748-3.667-4.08-5-6.998h10.5
				C201.583,129.193,199.751,131.525,197.25,133.524z"/>
			<path fill="#FFFFFF" d="M215.051,142.025h3.125v-1.375h21.375v1.375h3.125V113.15h-27.626V142.025z M218.176,129.525
				c0.583,0.749,1.001,1.5,1.25,2.251c0.334-0.167,0.833-0.418,1.502-0.751c0.666-0.415,1.166-0.706,1.5-0.875v3.374
				c-0.085,2.334,1.081,3.459,3.5,3.376h7c2.165,0,3.455-0.792,3.874-2.375c0.165-0.332,0.332-0.875,0.501-1.626
				c0.081-0.248,0.124-0.456,0.124-0.625c-0.751-0.25-1.542-0.541-2.375-0.875c-0.083,0.751-0.25,1.418-0.5,2
				c-0.167,0.918-0.875,1.376-2.125,1.376h-5.625c-1.251,0.083-1.835-0.501-1.75-1.75v-3.126h6.125c0,0.251-0.044,0.544-0.126,0.875
				c0,0.584-0.375,0.875-1.125,0.875c-0.749,0-1.667-0.04-2.75-0.124c0.25,0.668,0.375,1.168,0.375,1.5
				c0.082,0.083,0.126,0.167,0.126,0.25c1.081,0,2.125,0,3.124,0c1.667-0.083,2.582-0.875,2.751-2.374l0.124-2.127
				c1.083,0.834,2.501,1.626,4.251,2.375c0.165-0.332,0.415-0.749,0.749-1.25c0.25-0.582,0.458-0.999,0.625-1.249
				c-2.334-0.582-4.167-1.541-5.499-2.875h4.75v-2.125h-9.751c0-0.083,0.042-0.207,0.126-0.376c0.25-0.582,0.416-1.04,0.5-1.374
				h8.25v-2h-2.999c0.749-1.001,1.414-1.832,1.998-2.501l-2.375-0.625c-0.834,1.25-1.5,2.125-2,2.625l1.125,0.501h-3.374
				c0.082-0.417,0.206-1.001,0.375-1.75c0.082-0.751,0.167-1.292,0.25-1.626h-2.875c-0.169,1.085-0.375,2.21-0.625,3.376h-2.749
				l1.123-0.501c-0.583-0.915-1.208-1.79-1.874-2.625l-2.375,0.625c0.165,0.25,0.415,0.584,0.749,1.001
				c0.501,0.584,0.875,1.083,1.125,1.5h-3.124v2h6.5c-0.25,0.584-0.543,1.168-0.875,1.75h-6.5v2.125h4.874
				c-1.333,1.249-3.292,2.417-5.875,3.5v-13.626h21.375v22.75h-21.375V129.525z M225.551,127.899c0.833-0.665,1.502-1.373,2-2.124
				h3.25c0.667,0.834,1.292,1.542,1.876,2.124H225.551z"/>
			<path fill="#FFFFFF" d="M290.278,121.275c-0.667,7.334-3.417,13.124-8.249,17.375c0.832,0.999,1.75,1.957,2.749,2.875
				c5.417-5.25,8.416-12.081,9-20.5c0.167-1.166,0.332-3.376,0.501-6.625c0-0.251,0-0.416,0-0.501l-3.5-0.25
				C290.695,116.734,290.528,119.275,290.278,121.275z"/>
			<path fill="#FFFFFF" d="M271.479,131.149c-1.75-2.499-3.376-4.623-4.876-6.374l-2.625,1.624c1.667,2.251,3.207,4.459,4.625,6.626
				L271.479,131.149z"/>
			<path fill="#FFFFFF" d="M303.653,120.775c-0.25-2.167-0.459-4.666-0.624-7.501h-3.376c0,1.75,0.167,4.21,0.5,7.375
				c0.501,8.835,3.708,15.75,9.626,20.75c0.999-1.25,1.916-2.249,2.749-3C307.194,134.484,304.235,128.609,303.653,120.775z"/>
		</g>
		<polyline id="line-right" fill-rule="evenodd" clip-rule="evenodd" fill="#FFFFFF" points="430,125 430,124 560.999,124 
			560.999,125 430,125 		"/>
		<polygon id="line-left" fill="#FFFFFF" points="131,125 0,125 0,124 131,124 131,125 131,125 		"/>
		<path id="name" fill-rule="evenodd" clip-rule="evenodd" fill="#FFFFFF" d="M398.576,51.189c0-2.314,1.812-4.19,4.047-4.19
			c2.234,0,4.045,1.876,4.045,4.19c0,2.315-1.811,4.191-4.045,4.191C400.388,55.38,398.576,53.504,398.576,51.189L398.576,51.189z
			 M413.313,73.578c-0.481,1.606-1.065,2.91-1.752,3.908c-0.688,1.001-1.341,1.322-1.958,0.964
			c-9.202-5.419-16.055-11.748-21.957-20.022c-6.464,8.283-13.021,14.346-22.369,19.916c-0.688,0.285-1.376-0.07-2.061-1.071
			c-0.689-0.999-1.238-2.318-1.649-3.962c-0.413-1.642-0.586-3.122-0.517-4.443c0.068-1.319,0.479-2.087,1.236-2.303
			c6.876-2.571,14.464-7.458,21.34-13.597c-5.631-8.267-10.972-19.427-13.164-29.407c-0.208-0.786-0.122-1.463,0.256-2.035
			c0.379-0.571,0.877-0.928,1.496-1.071c0.619-0.142,1.219-0.052,1.805,0.268c0.582,0.322,0.978,0.875,1.186,1.661
			c1.78,8.411,7.223,18.996,12.441,25.98c5.088-6.715,10.653-16.699,13.268-25.554c0.136-0.855,0.496-1.426,1.082-1.713
			c0.582-0.283,1.201-0.337,1.854-0.159c0.652,0.178,1.15,0.553,1.494,1.123c0.344,0.572,0.446,1.285,0.311,2.142
			c-1.525,5.357-9.562,22.795-14.194,28.872c5.769,5.708,13.095,10.424,21.338,13.705c0.685,0.213,1.065,0.999,1.133,2.355
			C414,70.492,413.794,71.972,413.313,73.578L413.313,73.578z M388.004,31.914c-0.643,0-1.199-0.227-1.671-0.685
			c-0.473-0.456-0.708-1.069-0.708-1.843V16.004c0-0.842,0.235-1.475,0.708-1.896c0.472-0.421,1.028-0.632,1.671-0.632
			c0.639,0,1.213,0.211,1.719,0.632c0.507,0.421,0.759,1.054,0.759,1.896v13.381c0,0.774-0.252,1.387-0.759,1.843
			C389.217,31.687,388.643,31.914,388.004,31.914L388.004,31.914z M375.913,51.189c0,2.315-1.813,4.191-4.048,4.191
			c-2.234,0-4.047-1.876-4.047-4.191c0-2.314,1.813-4.19,4.047-4.19C374.101,46.999,375.913,48.875,375.913,51.189L375.913,51.189z
			 M365.868,36.942h-10.044v0.895l9.07,7.495c0.757,0.644,1.168,1.536,1.238,2.677c0.067,1.143-0.104,2.266-0.517,3.372
			c-0.411,1.108-0.962,1.894-1.649,2.357c-0.687,0.464-1.34,0.446-1.957-0.054l-6.186-5.461v29.729c0,0.786-0.258,1.409-0.773,1.875
			c-0.515,0.463-1.101,0.696-1.752,0.696c-0.654,0-1.221-0.233-1.702-0.696c-0.481-0.466-0.72-1.089-0.72-1.875V47.902
			c-3.26,6.158-6.548,9.748-10.618,12.741c-0.551,0.359-1.083,0.072-1.599-0.855c-0.515-0.928-0.928-2.16-1.236-3.694
			s-0.36-3.015-0.155-4.445c0.206-1.426,0.652-2.355,1.341-2.782c2.171-1.436,9.845-7.72,12.268-10.921v-1.003h-11.864
			c-1.076,0-1.949-0.9-1.949-2.012v-4.357c0-1.11,0.873-2.012,1.949-2.012h11.864v-7.179c-1.375,0.573-2.784,1.089-4.228,1.552
			c-1.443,0.466-2.885,0.91-4.328,1.339c-0.825,0.144-1.514-0.268-2.063-1.232c-0.551-0.964-0.912-2.158-1.083-3.587
			c-0.173-1.426-0.103-2.676,0.206-3.747c0.311-1.071,0.877-1.606,1.701-1.606c3.848-0.142,7.662-0.463,11.443-0.964
			c3.777-0.497,6.939-1.247,9.483-2.247c0.617-0.357,1.201-0.411,1.752-0.161c0.549,0.25,0.928,0.679,1.133,1.285
			c0.208,0.607,0.208,1.232,0,1.874c-0.205,0.642-0.617,1.25-1.235,1.82c-1.032,0.714-2.183,1.411-3.454,2.088
			c-1.272,0.679-2.731,1.338-4.381,1.981v8.785h10.044c1.077,0,1.95,0.902,1.95,2.012v4.357
			C367.818,36.042,366.945,36.942,365.868,36.942L365.868,36.942z M324.431,76.437c-2.69,1.327-6.957,1.955-12.801,1.886
			c-5.842-0.07-10.64-0.733-14.395-1.991c-2.621-0.907-4.425-1.99-5.417-3.247c-0.993-1.258-1.487-3.073-1.487-5.448V46.37h-1.593
			c-2.479,7.543-6.162,13.864-11.048,18.961c-4.887,5.099-11.404,9.08-19.547,11.943c-0.78,0.21-1.453-0.227-2.018-1.31
			c-0.568-1.083-0.976-2.444-1.222-4.086c-0.249-1.64-0.249-3.091,0-4.348c0.246-1.257,0.76-1.954,1.54-2.093
			c7.507-1.606,13.385-3.807,17.634-6.601c4.249-2.792,7.365-6.949,9.348-12.467h-23.369c-0.85,0-1.488-0.504-1.913-1.519
			c-0.425-1.011-0.638-2.198-0.638-3.56s0.213-2.532,0.638-3.51s1.063-1.467,1.913-1.467h25.707
			c0.354-2.025,0.602-3.839,0.743-5.448c0.142-1.604,0.213-3.595,0.213-5.97h-20.464c-0.85,0-1.488-0.506-1.911-1.519
			c-0.427-1.013-0.638-2.2-0.638-3.562s0.211-2.532,0.638-3.51c0.423-0.978,1.062-1.467,1.911-1.467h47.301
			c0.779,0,1.398,0.489,1.86,1.467c0.46,0.978,0.69,2.148,0.69,3.51s-0.23,2.549-0.69,3.562c-0.462,1.013-1.081,1.519-1.86,1.519
			h-21.738c0,2.303-0.054,4.278-0.158,5.917c-0.107,1.642-0.303,3.475-0.584,5.5h28.362c0.778,0,1.397,0.489,1.859,1.467
			c0.46,0.978,0.69,2.148,0.69,3.51s-0.23,2.549-0.69,3.56c-0.462,1.015-1.081,1.519-1.859,1.519H295.43v16.449
			c0,1.118,0.248,1.921,0.745,2.408c0.494,0.491,1.449,0.98,2.867,1.467c3.256,0.98,7.313,1.467,12.163,1.467
			s8.833-0.419,11.951-1.257c0.778-0.277,1.434-0.033,1.965,0.733c0.532,0.771,0.868,1.781,1.01,3.038
			c0.142,1.258,0.069,2.428-0.212,3.51C325.634,75.269,325.137,76.018,324.431,76.437L324.431,76.437z"/>
		<path id="bg" fill-rule="evenodd" clip-rule="evenodd" fill="#FFFFFF" d="M168.012,0.185h48.604
			c11.604,0,21.012,9.408,21.012,21.014v48.603c0,11.606-9.408,21.013-21.012,21.013h-48.604c-11.604,0-21.012-9.407-21.012-21.013
			V21.198C147,9.592,156.408,0.185,168.012,0.185L168.012,0.185z"/>
		<path id="face_1_" fill="#64696E" d="M191.913,15.568c-17.269,0-31.268,13.084-31.268,29.227c0,7.107,2.715,13.62,7.226,18.685
			l-2.265,11.705c-0.118,0.631,0.239,0.877,0.798,0.554l10.266-5.425c4.51,2.359,9.707,3.709,15.243,3.709
			c17.268,0,31.266-13.084,31.266-29.228C223.178,28.652,209.18,15.568,191.913,15.568z"/>
		<path id="mask_1_" fill="#1E2328" d="M223.178,44.794c0-8.567-3.944-16.273-10.226-21.619c-3.349,0.89-6.738,2.284-9.967,4.406
			c0,0-0.755,0.495-1.789,0.495s-1.787-0.495-1.787-0.495c-7.583-4.984-17.858-6.149-26.448-6.029
			c-7.484,5.34-12.316,13.761-12.316,23.242c0,3.201,0.558,6.279,1.576,9.161c20.618,0.191,36.888-14.147,37.188-14.363
			c0.976-0.696,1.787-0.726,1.787-0.726s0.811,0.029,1.789,0.726c0.245,0.175,6.775,7.729,19.734,10.169
			C223.016,48.146,223.178,46.489,223.178,44.794z"/>
		<path id="eye_1_" fill="#FFFFFF" d="M190.892,37.998c-2.064,0-3.739-1.674-3.739-3.739s1.674-3.739,3.739-3.739
			s3.739,1.674,3.739,3.739S192.957,37.998,190.892,37.998L190.892,37.998z M210.265,37.998c-1.878,0-3.399-1.674-3.399-3.739
			s1.521-3.739,3.399-3.739c1.876,0,3.399,1.674,3.399,3.739S212.141,37.998,210.265,37.998L210.265,37.998z"/>
	</g>
</g>
</svg>
