<?xml version="1.0" encoding="utf-8"?>
<!-- Generator: Adobe Illustrator 16.0.0, SVG Export Plug-In . SVG Version: 6.00 Build 0)  -->
<!DOCTYPE svg PUBLIC "-//W3C//DTD SVG 1.1//EN" "http://www.w3.org/Graphics/SVG/1.1/DTD/svg11.dtd">
<svg version="1.1" id="图层_1" xmlns="http://www.w3.org/2000/svg" xmlns:xlink="http://www.w3.org/1999/xlink" x="0px" y="0px"
	 width="372px" height="109px" viewBox="0 0 372 109" enable-background="new 0 0 372 109" xml:space="preserve">
<g>
	<path id="slogan" fill="#FFFFFF" d="M146.903,103.475c-0.803,0-1.86,0-3.174,0c-0.074-0.731-0.257-1.641-0.548-2.735
		c0.658,0,1.569,0,2.737,0c1.021,0.072,1.496-0.364,1.423-1.312v-4.594h-5.036c-0.219,3.646-1.204,6.671-2.955,9.078
		c-0.293-0.22-0.805-0.656-1.533-1.313c-0.367-0.293-0.622-0.512-0.766-0.657c1.822-1.969,2.662-5.539,2.516-10.719V78.864h10.618
		v21.22C150.258,102.343,149.164,103.475,146.903,103.475L146.903,103.475z M147.341,81.49h-4.926v4.265h4.926V81.49L147.341,81.49z
		 M147.341,88.161h-4.926v3.172v1.095h4.926V88.161L147.341,88.161z M134.096,103.256c-0.949,0.071-2.007,0.109-3.174,0.109
		c-0.147-1.168-0.329-2.043-0.548-2.626c0.803,0,1.643,0,2.518,0c1.021,0,1.495-0.473,1.423-1.421v-4.375h-4.597
		c-0.147,3.28-1.022,6.269-2.627,8.969c-0.219-0.22-0.62-0.585-1.204-1.095c-0.512-0.437-0.875-0.766-1.094-0.983
		c1.604-2.115,2.334-6.017,2.189-11.703V78.864h10.071v21.22C137.053,102.123,136.066,103.182,134.096,103.256L134.096,103.256z
		 M134.315,81.49h-4.597v4.265h4.597V81.49L134.315,81.49z M134.315,88.161h-4.597v3.392v0.875h4.597V88.161L134.315,88.161z
		 M166.003,87.177c-0.074,0.219-0.109,0.402-0.109,0.548h14.12v2.733c-1.461,3.21-3.321,5.798-5.584,7.766
		c2.191,1.168,4.962,2.043,8.319,2.626c-0.51,0.801-1.022,1.786-1.531,2.952c-3.65-0.875-6.752-2.115-9.304-3.718
		c-2.482,1.531-5.622,2.843-9.414,3.938c-0.219-0.438-0.731-1.313-1.533-2.626c-0.074-0.073-0.11-0.147-0.11-0.219
		c3.284-0.583,6.167-1.602,8.648-3.063c-1.752-1.749-3.286-4.046-4.598-6.891l1.641-0.875h-1.423
		c-1.605,4.523-4.087,8.641-7.442,12.36c-0.293-0.657-0.767-1.604-1.423-2.845c3.648-4.083,6.13-9.333,7.444-15.75h-6.678v-2.733
		h7.225c0.072-0.438,0.182-1.095,0.329-1.97c0.072-0.729,0.146-1.313,0.219-1.749l3.064,0.109c-0.073,0.365-0.147,0.911-0.219,1.64
		c-0.147,0.875-0.257,1.532-0.329,1.97h15.325v2.733h-15.871C166.622,84.844,166.367,85.864,166.003,87.177L166.003,87.177z
		 M171.915,96.475c2.189-1.75,3.792-3.792,4.814-6.126h-9.194C168.701,92.902,170.162,94.943,171.915,96.475L171.915,96.475z
		 M210.496,103.912v-1.203h-18.717v1.203h-2.736V78.646h24.189v25.267H210.496L210.496,103.912z M210.496,80.834h-18.717v11.921
		c2.262-0.945,3.977-1.968,5.145-3.063h-4.268v-1.858h5.691c0.291-0.511,0.547-1.021,0.766-1.531h-5.691v-1.75h2.736
		c-0.219-0.365-0.549-0.802-0.984-1.313c-0.293-0.364-0.512-0.657-0.658-0.875l2.08-0.548c0.584,0.729,1.129,1.495,1.643,2.297
		l-0.986,0.438h2.408c0.221-1.021,0.4-2.006,0.547-2.953h2.518c-0.072,0.291-0.146,0.766-0.219,1.422
		c-0.146,0.655-0.256,1.166-0.326,1.531h2.953l-0.984-0.438c0.438-0.438,1.021-1.202,1.75-2.297l2.082,0.548
		c-0.512,0.584-1.096,1.312-1.752,2.188h2.627v1.75h-7.225c-0.074,0.291-0.219,0.694-0.439,1.202
		c-0.072,0.147-0.109,0.258-0.109,0.329h8.539v1.858h-4.158c1.166,1.168,2.771,2.008,4.816,2.516
		c-0.148,0.22-0.33,0.585-0.549,1.095c-0.293,0.437-0.51,0.804-0.656,1.093c-1.533-0.656-2.773-1.348-3.721-2.077l-0.111,1.858
		c-0.146,1.313-0.947,2.007-2.408,2.079c-0.875,0-1.787,0-2.736,0c0-0.072-0.037-0.146-0.109-0.22c0-0.291-0.107-0.728-0.328-1.312
		c0.947,0.073,1.752,0.109,2.408,0.109s0.986-0.255,0.986-0.766c0.072-0.291,0.109-0.548,0.109-0.766h-5.365v2.733
		c-0.074,1.095,0.439,1.605,1.533,1.531h4.926c1.096,0,1.713-0.398,1.861-1.202c0.219-0.511,0.363-1.095,0.438-1.75
		c0.729,0.293,1.424,0.546,2.08,0.766c0,0.146-0.039,0.328-0.109,0.546c-0.148,0.656-0.293,1.132-0.438,1.422
		c-0.367,1.388-1.496,2.079-3.395,2.079h-6.129c-2.119,0.073-3.139-0.911-3.066-2.953v-2.954c-0.293,0.147-0.729,0.402-1.313,0.766
		c-0.584,0.293-1.023,0.512-1.314,0.657c-0.217-0.657-0.584-1.313-1.094-1.97v7.766h18.717V80.834L210.496,80.834z M198.238,91.553
		h6.238c-0.512-0.511-1.057-1.131-1.643-1.86h-2.846C199.551,90.349,198.965,90.97,198.238,91.553L198.238,91.553z M239.996,94.396
		l-2.52,1.641c-1.24-1.894-2.59-3.828-4.049-5.796l2.299-1.423C237.041,90.349,238.463,92.208,239.996,94.396L239.996,94.396z
		 M237.148,82.036h7.883c-0.148,7.949-0.293,13.418-0.439,16.407c0.072,3.281-1.496,4.884-4.707,4.813
		c-1.461,0.071-3.027,0.109-4.705,0.109c-0.148-1.095-0.33-2.008-0.547-2.735c0.436,0,1.094,0,1.969,0
		c0.947,0.074,1.68,0.109,2.189,0.109c1.971,0,2.957-0.946,2.957-2.843c0.07-1.166,0.143-3.646,0.217-7.438
		c0.072-2.695,0.109-4.594,0.109-5.687h-6.02c-0.656,1.46-1.313,2.808-1.971,4.046c-0.146-0.072-0.367-0.218-0.656-0.437
		c-0.365-0.22-0.984-0.547-1.861-0.985c1.678-3.063,2.992-6.271,3.941-9.624l2.955,0.656c-0.074,0.291-0.219,0.693-0.438,1.202
		C237.732,80.652,237.439,81.454,237.148,82.036L237.148,82.036z M228.393,101.396h-5.145v2.079h-2.846V82.036h2.955
		c0.219-0.802,0.51-1.894,0.877-3.281c0.07-0.437,0.143-0.766,0.217-0.983l3.066,0.437c-0.293,1.313-0.658,2.59-1.094,3.828h4.705
		v21.329h-2.736V101.396L228.393,101.396z M228.393,84.771h-5.145v5.687h5.145V84.771L228.393,84.771z M228.393,93.193h-5.145v5.687
		h5.145V93.193L228.393,93.193z M275.076,103.365c-5.184-4.376-7.99-10.427-8.43-18.157c-0.293-2.769-0.436-4.922-0.436-6.453h2.955
		c0.145,2.479,0.328,4.667,0.547,6.563c0.51,6.854,3.102,11.994,7.771,15.421C276.754,101.396,275.951,102.271,275.076,103.365
		L275.076,103.365z M253.186,103.475c-0.877-0.803-1.682-1.641-2.408-2.516c4.23-3.719,6.639-8.786,7.223-15.204
		c0.219-1.749,0.363-3.974,0.438-6.671l3.066,0.219c0,0.074,0,0.218,0,0.437c-0.146,2.844-0.293,4.777-0.439,5.798
		C260.553,92.902,257.928,98.88,253.186,103.475L253.186,103.475z M307.201,93.521c-0.73-0.802-1.861-1.931-3.393-3.39
		c-0.805-0.802-1.389-1.386-1.752-1.75v15.421h-2.846v-26.03h2.846v9.733l1.424-1.421c1.457,1.239,3.32,2.916,5.582,5.03
		L307.201,93.521L307.201,93.521z M282.355,100.193c0.508,0,1.348-0.072,2.516-0.22c1.605-0.071,2.809-0.146,3.611-0.219v-3.828
		h-5.361v-2.516h5.361v-2.733h2.848v2.733h5.254v2.516h-5.254v3.61l6.131-0.438c0,0.949,0,1.786,0,2.517
		c-3.578,0.219-8.504,0.618-14.779,1.202L282.355,100.193L282.355,100.193z M282.682,87.068h5.801v-3.281h-5.143v-2.626h5.143v-3.39
		h2.848v3.39h5.143v2.626h-5.143v3.281h5.801v2.624h-14.449V87.068L282.682,87.068z M340.422,97.24
		c-0.219,0.365-0.512,0.874-0.875,1.531c-0.074,0.291-0.148,0.475-0.219,0.547c-1.533-0.656-2.775-1.348-3.723-2.078
		c-0.658,0.438-1.314,0.874-1.971,1.313c1.459,0.584,3.43,1.35,5.912,2.297l-1.096,1.968c-1.824-0.947-3.904-1.822-6.238-2.624
		l1.203-1.75l-1.203-1.531c0.654-0.292,1.275-0.656,1.859-1.095c-0.51-0.509-0.984-1.093-1.424-1.749h-4.158
		c-0.439,0.584-0.912,1.093-1.424,1.531c0.658,0.437,1.314,0.84,1.971,1.202l-0.986,1.422l0.879,1.97l-6.68,2.624l-0.984-2.078
		c1.605-0.508,3.723-1.273,6.35-2.296c-0.148-0.072-0.402-0.256-0.768-0.547c-0.584-0.365-1.023-0.656-1.314-0.875
		c-1.094,0.875-2.406,1.679-3.939,2.406c-0.219-0.291-0.438-0.691-0.656-1.204l-0.438,0.548c-0.512-0.657-1.168-1.386-1.971-2.188
		c-0.438,2.261-1.531,4.665-3.285,7.219c-0.219-0.293-0.803-0.913-1.75-1.859c2.408-3.426,3.574-8.056,3.504-13.891
		c0-1.093,0.035-2.844,0.109-5.25c0-2.333,0-3.974,0-4.922h2.408c0,2.479,0,5.105,0,7.875c0.582-0.875,1.24-2.004,1.969-3.39
		l1.424,0.875v-4.485h15.434v8.095h-2.846v1.641h3.721v1.858h-3.721v1.75h4.598v1.97h-4.928
		C336.48,95.527,338.232,96.583,340.422,97.24L340.422,97.24z M328.49,92.099h4.488v-1.75h-4.488V92.099L328.49,92.099z
		 M328.49,88.49h4.488V86.85h-4.488V88.49L328.49,88.49z M322.908,84.114c-0.877,1.387-1.789,2.772-2.736,4.156l-0.766-0.437v0.109
		c0,2.188-0.111,4.084-0.33,5.687c1.096,1.095,2.08,2.079,2.955,2.953c1.605-0.802,2.846-1.64,3.723-2.515h-4.379v-1.97h4.488v-1.75
		h-3.723V88.49h3.723V86.85h-2.955V84.114L322.908,84.114z M335.824,80.505h-10.291v1.531h10.291V80.505L335.824,80.505z
		 M335.824,85.099v-1.641h-10.291v1.641H335.824L335.824,85.099z M313.494,83.349l1.75-0.437c0.439,1.968,0.84,4.265,1.205,6.89
		l-1.859,0.438C314.441,88.638,314.076,86.341,313.494,83.349L313.494,83.349z M329.584,100.63v-5.687h2.408v5.906
		c0.072,1.894-0.875,2.843-2.846,2.843c-0.584,0-1.313,0-2.189,0c0-0.218-0.074-0.546-0.219-0.983
		c-0.072-0.512-0.146-0.875-0.217-1.094c0.436,0.071,1.02,0.109,1.75,0.109C329.219,101.797,329.656,101.432,329.584,100.63
		L329.584,100.63z M368.168,96.365v7.437h-2.846v-7.109l-7.881,0.766l-0.33-2.733l8.211-0.766V77.771h2.846V93.63l3.504-0.327
		l0.109,2.733L368.168,96.365L368.168,96.365z M363.682,90.349l-1.754,2.079c-1.75-1.531-3.211-2.697-4.377-3.501l1.643-1.968
		C360.797,88.125,362.293,89.256,363.682,90.349L363.682,90.349z M358.426,82.146l1.752-1.86c0.219,0.219,0.582,0.476,1.096,0.766
		c1.385,1.095,2.479,2.007,3.283,2.735l-1.861,2.077C361.09,84.333,359.666,83.095,358.426,82.146L358.426,82.146z M352.844,85.646
		c0.875-1.969,1.643-3.791,2.299-5.468l1.969,0.766c-0.654,1.749-1.459,3.573-2.408,5.468L352.844,85.646L352.844,85.646z
		 M356.566,90.24h-4.051v2.733l0.984-0.984c0.219,0.219,0.51,0.512,0.877,0.875c1.166,1.168,2.041,2.079,2.625,2.735l-1.75,1.968
		c-0.367-0.509-0.984-1.202-1.859-2.077c-0.367-0.438-0.658-0.766-0.877-0.985v9.297h-2.736v-9.297
		c-0.805,1.898-2.045,3.902-3.721,6.016c-0.221-1.093-0.514-2.149-0.877-3.172c1.604-1.749,3.064-4.117,4.379-7.108h-4.051v-2.516
		h4.27v-9.953h2.736v9.953h4.051V90.24L356.566,90.24z M345.4,80.834l1.971-0.656c0.438,1.313,1.057,3.135,1.861,5.468l-1.971,0.657
		C346.457,83.97,345.838,82.146,345.4,80.834L345.4,80.834z"/>
	<path id="name" fill-rule="evenodd" clip-rule="evenodd" fill="#FFFFFF" d="M258.271,42.207c0-2.119,1.672-3.837,3.732-3.837
		s3.734,1.718,3.734,3.837c0,2.117-1.674,3.834-3.734,3.834S258.271,44.324,258.271,42.207L258.271,42.207z M271.867,62.696
		c-0.443,1.47-0.982,2.663-1.617,3.577c-0.635,0.915-1.236,1.21-1.807,0.883c-8.488-4.96-14.811-10.753-20.254-18.326
		c-5.963,7.582-12.012,13.128-20.637,18.227c-0.635,0.262-1.27-0.065-1.902-0.979c-0.633-0.915-1.141-2.122-1.521-3.627
		c-0.381-1.502-0.539-2.856-0.477-4.066c0.063-1.207,0.445-1.91,1.141-2.105c6.344-2.354,13.346-6.827,19.688-12.446
		c-5.193-7.565-10.121-17.779-12.145-26.913c-0.191-0.717-0.111-1.337,0.236-1.862c0.35-0.521,0.809-0.848,1.379-0.979
		c0.572-0.129,1.125-0.049,1.666,0.244c0.537,0.295,0.902,0.802,1.092,1.521c1.645,7.696,6.666,17.386,11.48,23.777
		c4.691-6.146,9.826-15.281,12.238-23.386c0.125-0.785,0.459-1.307,1-1.569c0.537-0.26,1.105-0.309,1.709-0.147
		c0.604,0.166,1.063,0.507,1.379,1.03c0.318,0.523,0.412,1.175,0.285,1.96c-1.406,4.902-8.818,20.861-13.094,26.423
		c5.322,5.224,12.082,9.54,19.684,12.542c0.635,0.196,0.984,0.915,1.049,2.155C272.5,59.871,272.311,61.226,271.867,62.696
		L271.867,62.696z M248.518,24.566c-0.594,0-1.105-0.208-1.541-0.627c-0.436-0.417-0.652-0.979-0.652-1.688V10.005
		c0-0.771,0.217-1.35,0.652-1.734c0.436-0.386,0.947-0.579,1.541-0.579c0.592,0,1.119,0.192,1.586,0.579
		c0.469,0.385,0.701,0.963,0.701,1.734v12.246c0,0.708-0.232,1.271-0.701,1.688C249.637,24.357,249.109,24.566,248.518,24.566
		L248.518,24.566z M237.363,42.207c0,2.117-1.67,3.834-3.732,3.834s-3.734-1.718-3.734-3.834c0-2.119,1.672-3.837,3.734-3.837
		S237.363,40.088,237.363,42.207L237.363,42.207z M228.098,29.168h-9.266v0.819l8.367,6.859c0.697,0.587,1.078,1.405,1.143,2.449
		c0.063,1.046-0.096,2.075-0.475,3.087c-0.381,1.014-0.891,1.73-1.523,2.157c-0.633,0.424-1.236,0.408-1.807-0.05l-5.705-4.998
		v27.208c0,0.718-0.238,1.289-0.715,1.715c-0.473,0.424-1.012,0.636-1.615,0.636s-1.127-0.212-1.57-0.636
		c-0.443-0.426-0.664-0.997-0.664-1.715v-27.5c-3.006,5.635-6.039,8.92-9.795,11.661c-0.51,0.327-0.998,0.064-1.475-0.785
		c-0.477-0.848-0.855-1.975-1.141-3.38c-0.285-1.403-0.332-2.758-0.145-4.066c0.191-1.307,0.604-2.156,1.238-2.548
		c2.002-1.313,9.082-7.063,11.316-9.995v-0.917h-10.943c-0.994,0-1.799-0.825-1.799-1.842v-3.987c0-1.017,0.805-1.842,1.799-1.842
		h10.943v-6.57c-1.27,0.523-2.568,0.997-3.9,1.421c-1.33,0.426-2.66,0.832-3.992,1.224c-0.762,0.133-1.396-0.245-1.902-1.127
		c-0.51-0.882-0.842-1.975-0.998-3.281c-0.16-1.306-0.096-2.451,0.189-3.43s0.809-1.47,1.57-1.47
		c3.549-0.129,7.066-0.424,10.555-0.882c3.486-0.457,6.402-1.141,8.748-2.058c0.57-0.325,1.109-0.375,1.617-0.147
		c0.506,0.23,0.855,0.622,1.045,1.177c0.191,0.555,0.191,1.126,0,1.714c-0.189,0.588-0.568,1.143-1.141,1.666
		c-0.951,0.654-2.012,1.29-3.186,1.91c-1.174,0.622-2.52,1.226-4.041,1.813v8.04h9.266c0.994,0,1.799,0.825,1.799,1.842v3.987
		C229.896,28.343,229.092,29.168,228.098,29.168L228.098,29.168z M189.871,65.313c-2.482,1.215-6.418,1.79-11.809,1.725
		c-5.389-0.063-9.817-0.672-13.28-1.822c-2.417-0.83-4.083-1.82-4.997-2.972c-0.915-1.15-1.373-2.811-1.373-4.984V37.795h-1.468
		c-2.289,6.904-5.684,12.688-10.192,17.353c-4.509,4.667-10.52,8.31-18.033,10.93c-0.719,0.192-1.338-0.207-1.861-1.197
		s-0.898-2.237-1.127-3.739c-0.23-1.501-0.23-2.828,0-3.979c0.229-1.15,0.701-1.79,1.421-1.917
		c6.924-1.47,12.347-3.485,16.268-6.042c3.919-2.555,6.794-6.357,8.624-11.409h-21.56c-0.783,0-1.373-0.462-1.765-1.389
		c-0.392-0.925-0.587-2.013-0.587-3.26s0.196-2.316,0.587-3.211c0.392-0.895,0.981-1.342,1.765-1.342H154.2
		c0.326-1.854,0.554-3.515,0.685-4.987c0.131-1.468,0.196-3.29,0.196-5.464h-18.877c-0.785,0-1.373-0.462-1.765-1.389
		c-0.392-0.927-0.587-2.015-0.587-3.26c0-1.247,0.196-2.316,0.587-3.213c0.392-0.893,0.979-1.342,1.765-1.342h43.636
		c0.719,0,1.29,0.449,1.716,1.342c0.424,0.896,0.636,1.966,0.636,3.213c0,1.245-0.212,2.333-0.636,3.26
		c-0.426,0.927-0.997,1.389-1.716,1.389h-20.054c0,2.109-0.049,3.916-0.147,5.417c-0.097,1.502-0.279,3.179-0.539,5.034h26.166
		c0.718,0,1.291,0.447,1.716,1.342c0.424,0.895,0.637,1.964,0.637,3.211s-0.213,2.334-0.637,3.26
		c-0.426,0.927-0.998,1.389-1.716,1.389h-22.147v15.053c0,1.022,0.228,1.759,0.686,2.205c0.457,0.447,1.339,0.896,2.647,1.342
		c3.003,0.896,6.744,1.343,11.221,1.343c4.474,0,8.149-0.385,11.025-1.15c0.719-0.255,1.322-0.032,1.813,0.671
		c0.49,0.704,0.799,1.63,0.932,2.779c0.131,1.15,0.064,2.223-0.197,3.213C190.98,64.243,190.523,64.928,189.871,65.313
		L189.871,65.313z"/>
</g>
<g id="logo">
	<path id="bg" fill-rule="evenodd" clip-rule="evenodd" fill="#FFFFFF" d="M25.652,0.726h57.601
		c13.752,0,24.901,11.149,24.901,24.903v57.6c0,13.753-11.149,24.901-24.901,24.901H25.652c-13.753,0-24.902-11.148-24.902-24.901
		v-57.6C0.75,11.875,11.899,0.726,25.652,0.726L25.652,0.726z"/>
	<path id="face_1_" fill="#64696E" d="M53.976,18.957c-20.466,0-37.055,15.506-37.055,34.636c0,8.422,3.218,16.14,8.563,22.143
		L22.8,89.608c-0.14,0.747,0.283,1.039,0.946,0.656l12.167-6.429c5.345,2.795,11.503,4.396,18.064,4.396
		c20.464,0,37.053-15.506,37.053-34.638C91.029,34.463,74.44,18.957,53.976,18.957z"/>
	<path id="mask_1_" fill="#1E2328" d="M91.029,53.593c0-10.153-4.674-19.286-12.119-25.62c-3.969,1.054-7.986,2.706-11.812,5.221
		c0,0-0.895,0.586-2.121,0.586s-2.118-0.586-2.118-0.586c-8.987-5.907-21.164-7.287-31.344-7.145
		c-8.87,6.329-14.596,16.309-14.596,27.544c0,3.793,0.661,7.441,1.867,10.857c24.434,0.227,43.716-16.766,44.072-17.021
		c1.157-0.825,2.118-0.86,2.118-0.86s0.961,0.035,2.121,0.86c0.29,0.208,8.029,9.16,23.387,12.052
		C90.836,57.565,91.029,55.602,91.029,53.593z"/>
	<path id="eye_1_" fill="#FFFFFF" d="M52.767,45.539c-2.447,0-4.431-1.984-4.431-4.431c0-2.446,1.984-4.431,4.431-4.431
		s4.431,1.984,4.431,4.431C57.197,43.555,55.213,45.539,52.767,45.539L52.767,45.539z M75.725,45.539
		c-2.226,0-4.029-1.984-4.029-4.431c0-2.446,1.803-4.431,4.029-4.431c2.223,0,4.028,1.984,4.028,4.431
		C79.753,43.555,77.948,45.539,75.725,45.539L75.725,45.539z"/>
</g>
</svg>
